Coordinates
version=1
nRows=19
nColumns=63
inDegrees=yes

Units are S.I. units (second, meters, Newtons, ...)
If the header above contains a line with 'inDegrees', this indicates whether rotational values are in degrees (yes) or radians (no).

endheader
time	pelvis_tilt	pelvis_list	pelvis_rotation	pelvis_tx	pelvis_ty	pelvis_tz	hip_flexion_r	hip_adduction_r	hip_rotation_r	knee_angle_r	knee_angle_r_beta	ankle_angle_r	subtalar_angle_r	mtp_angle_r	hip_flexion_l	hip_adduction_l	hip_rotation_l	knee_angle_l	knee_angle_l_beta	ankle_angle_l	subtalar_angle_l	mtp_angle_l	L5_S1_Flex_Ext	L5_S1_Lat_Bending	L5_S1_axial_rotation	L4_L5_Flex_Ext	L4_L5_Lat_Bending	L4_L5_axial_rotation	L3_L4_Flex_Ext	L3_L4_Lat_Bending	L3_L4_axial_rotation	L2_L3_Flex_Ext	L2_L3_Lat_Bending	L2_L3_axial_rotation	L1_L2_Flex_Ext	L1_L2_Lat_Bending	L1_L2_axial_rotation	L1_T12_Flex_Ext	L1_T12_Lat_Bending	L1_T12_axial_rotation	Abs_r3	Abs_r2	Abs_r1	Abs_t1	Abs_t2	neck_flexion	neck_bending	neck_rotation	arm_flex_r	arm_add_r	arm_rot_r	elbow_flex_r	pro_sup_r	wrist_flex_r	wrist_dev_r	arm_flex_l	arm_add_l	arm_rot_l	elbow_flex_l	pro_sup_l	wrist_flex_l	wrist_dev_l
3.879310	9.978536	-4.076259	103.644241	0.300267	1.094453	0.320332	-6.229961	7.539204	-2.256266	2.628971	0.045884	28.306500	-6.732122	0.000000	-1.621714	-4.229107	13.907649	9.391189	0.163907	31.866989	-6.069832	0.000000	-0.112231	0.427662	-2.057558	-0.208424	0.568790	-2.186155	-0.184384	1.039817	-2.186155	-0.128269	1.039817	-1.800363	-0.104218	0.872088	-1.671766	-0.064129	0.662448	-1.543168	-0.801653	4.837797	-11.443518	0.000000	0.000000	15.232271	-2.154296	-3.629307	10.165078	-7.445542	154.202846	2.678522	13.740121	-6.315727	-4.457591	3.598447	-13.574769	67.065250	21.869702	78.013445	-8.873884	5.166506
3.896552	9.986343	-4.126562	103.442160	0.300585	1.094503	0.320660	-6.097357	7.490712	-2.409206	2.713530	0.047360	28.521746	-6.157338	0.000000	-1.585590	-4.214220	13.662748	9.370440	0.163545	31.770733	-6.199884	0.000000	-0.110123	0.426510	-2.014016	-0.204510	0.567258	-2.139892	-0.180922	1.037015	-2.139892	-0.125860	1.037015	-1.762264	-0.102261	0.869738	-1.636388	-0.062924	0.660663	-1.510512	-0.786600	4.824762	-11.201350	0.000000	0.000000	15.519068	-2.332761	-3.782204	10.382774	-7.470558	154.116267	3.014959	13.848334	-6.261323	-4.500592	3.629696	-13.581357	66.485962	21.972805	78.175807	-8.544914	5.570610
3.913793	9.986879	-4.175207	103.215030	0.300885	1.094569	0.321037	-5.967097	7.430807	-2.452070	2.804077	0.048940	28.700972	-5.711904	0.000000	-1.563748	-4.174396	13.601362	9.325093	0.162754	31.610724	-6.572748	0.000000	-0.108957	0.424968	-1.958234	-0.202344	0.565208	-2.080624	-0.179005	1.033268	-2.080624	-0.124527	1.033268	-1.713455	-0.101177	0.866596	-1.591065	-0.062258	0.658276	-1.468676	-0.778267	4.807328	-10.891111	0.000000	0.000000	15.786495	-2.504752	-3.970019	10.578819	-7.503445	154.095683	3.333621	13.756033	-6.225073	-4.548400	3.700547	-13.573712	66.123496	22.032570	78.039468	-8.268839	5.851203
3.931034	9.974488	-4.211323	102.983512	0.301143	1.094658	0.321440	-5.854969	7.357028	-2.490617	2.901415	0.050639	28.863901	-5.286341	0.000000	-1.563501	-4.115569	13.632366	9.259480	0.161608	31.434967	-7.000715	0.000000	-0.109658	0.422127	-1.894166	-0.203646	0.561429	-2.012551	-0.180157	1.026361	-2.012551	-0.125328	1.026361	-1.657395	-0.101828	0.860802	-1.539010	-0.062658	0.653875	-1.420624	-0.783275	4.775190	-10.534782	0.000000	0.000000	15.990178	-2.647919	-4.207256	10.754290	-7.542187	154.116121	3.635940	13.519138	-6.167196	-4.586961	3.809618	-13.553959	66.026122	22.034641	77.744820	-8.096447	5.951296
3.948276	9.956602	-4.234685	102.766850	0.301352	1.094769	0.321880	-5.753227	7.277247	-2.641376	3.018717	0.052687	29.036886	-4.754493	0.000000	-1.557422	-4.064000	13.469629	9.212454	0.160788	31.374816	-7.040060	0.000000	-0.112131	0.418824	-1.823649	-0.208238	0.557036	-1.937627	-0.184220	1.018329	-1.937627	-0.128154	1.018329	-1.595693	-0.104125	0.854066	-1.481715	-0.064072	0.648759	-1.367737	-0.800939	4.737823	-10.142590	0.000000	0.000000	16.101116	-2.741178	-4.494865	10.900355	-7.594713	153.737507	3.934215	13.455388	-6.071229	-4.642165	3.985310	-13.516871	66.379748	21.959751	77.189203	-8.060694	5.840768
3.965517	9.930097	-4.238657	102.564283	0.301493	1.094905	0.322297	-5.682008	7.193528	-2.804360	3.134189	0.054702	29.188616	-4.250441	0.000000	-1.586417	-3.996535	13.513196	9.136761	0.159467	31.267399	-7.272086	0.000000	-0.116766	0.415018	-1.749890	-0.216847	0.551974	-1.859258	-0.191835	1.009075	-1.859258	-0.133452	1.009075	-1.531154	-0.108429	0.846305	-1.421786	-0.066720	0.642863	-1.312417	-0.834050	4.694769	-9.732363	0.000000	0.000000	16.094784	-2.775086	-4.813815	11.021066	-7.649548	153.407805	4.187750	13.273136	-5.889810	-4.660303	4.211849	-13.461461	67.148414	21.812249	76.446773	-8.157810	5.552375
3.982759	9.903340	-4.224476	102.407729	0.301539	1.095057	0.322676	-5.633688	7.115547	-3.138059	3.256134	0.056830	29.365070	-3.591901	0.000000	-1.632095	-3.932038	13.665938	9.055271	0.158044	31.156656	-7.535729	0.000000	-0.122658	0.411570	-1.681245	-0.227788	0.547388	-1.786323	-0.201514	1.000692	-1.786323	-0.140185	1.000692	-1.471089	-0.113900	0.839274	-1.366011	-0.070087	0.637522	-1.260934	-0.876131	4.655763	-9.350579	0.000000	0.000000	15.962199	-2.742511	-5.138854	11.114748	-7.702318	152.991922	4.393221	13.175294	-5.653453	-4.658123	4.493190	-13.388058	68.387109	21.587022	75.443628	-8.379508	5.094283
4.000000	9.871893	-4.196367	102.310555	0.301480	1.095206	0.322962	-5.624102	7.048934	-3.386239	3.344451	0.058372	29.480911	-3.141199	0.000000	-1.704977	-3.856917	14.095920	8.948524	0.156181	30.986004	-8.070700	0.000000	-0.128553	0.407743	-1.626705	-0.238737	0.542298	-1.728374	-0.211200	0.991386	-1.728374	-0.146924	0.991386	-1.423367	-0.119375	0.831469	-1.321698	-0.073455	0.631594	-1.220029	-0.918244	4.612468	-9.047245	0.000000	0.000000	15.724070	-2.652094	-5.439527	11.187557	-7.738389	152.910642	4.523475	12.934707	-5.382161	-4.610850	4.741456	-13.314633	69.612620	21.349636	74.563681	-8.642727	4.584442
4.017241	9.845901	-4.151544	102.273686	0.301345	1.095364	0.323159	-5.646363	7.002831	-3.710455	3.410202	0.059519	29.584433	-2.668072	0.000000	-1.779505	-3.806038	14.415686	8.858615	0.154612	30.900449	-8.359669	0.000000	-0.134608	0.404733	-1.586826	-0.249981	0.538295	-1.686003	-0.221148	0.984068	-1.686003	-0.153844	0.984068	-1.388473	-0.124997	0.825331	-1.289296	-0.076915	0.626931	-1.190120	-0.961495	4.578420	-8.825452	0.000000	0.000000	15.404713	-2.518709	-5.695878	11.236270	-7.761876	152.786068	4.596175	12.993302	-5.169271	-4.548696	5.034527	-13.237839	71.340930	21.057572	73.238073	-8.988119	3.940830
4.034483	9.816443	-4.092723	102.289138	0.301148	1.095511	0.323210	-5.718810	6.974375	-3.772367	3.415456	0.059611	29.572714	-2.617590	0.000000	-1.879818	-3.756508	14.887443	8.745046	0.152630	30.803765	-8.799101	0.000000	-0.140255	0.401335	-1.564595	-0.260467	0.533775	-1.662383	-0.230425	0.975805	-1.662383	-0.160297	0.975805	-1.369021	-0.130241	0.818402	-1.271234	-0.080142	0.621668	-1.173447	-1.001827	4.539979	-8.701810	0.000000	0.000000	15.048906	-2.361570	-5.900507	11.262122	-7.758114	152.987884	4.587223	13.053113	-4.992207	-4.453613	5.254630	-13.175671	72.826807	20.795753	72.148316	-9.319731	3.333159
4.051724	9.783754	-4.026447	102.376914	0.300883	1.095641	0.323160	-5.817293	6.958410	-3.870836	3.389901	0.059165	29.554911	-2.592932	0.000000	-1.966338	-3.726637	15.171131	8.651672	0.151000	30.831044	-8.888324	0.000000	-0.144936	0.397382	-1.563932	-0.269161	0.528518	-1.661678	-0.238116	0.966194	-1.661678	-0.165648	0.966194	-1.368441	-0.134588	0.810341	-1.270695	-0.082817	0.615545	-1.172949	-1.035266	4.495263	-8.698123	0.000000	0.000000	14.684460	-2.195920	-6.042828	11.267304	-7.728055	153.308217	4.506436	13.355620	-4.880996	-4.346751	5.433384	-13.135045	74.246845	20.555624	71.100866	-9.647402	2.737059
4.068966	9.746085	-3.953252	102.525971	0.300565	1.095751	0.322974	-5.951863	6.956375	-3.814046	3.311310	0.057793	29.470105	-2.840174	0.000000	-2.056699	-3.704348	15.468196	8.552147	0.149263	30.901653	-8.924228	0.000000	-0.148275	0.392544	-1.583288	-0.275361	0.522083	-1.682243	-0.243600	0.954431	-1.682243	-0.169463	0.954431	-1.385377	-0.137688	0.800475	-1.286421	-0.084724	0.608050	-1.187466	-1.059111	4.440535	-8.805770	0.000000	0.000000	14.327653	-2.031995	-6.127731	11.251136	-7.669918	153.815497	4.357521	13.785902	-4.812076	-4.220515	5.529207	-13.118329	75.339396	20.368183	70.304392	-9.924665	2.215150
4.086207	9.701065	-3.874732	102.730605	0.300197	1.095850	0.322654	-6.114713	6.961526	-3.686029	3.191770	0.055707	29.356767	-3.234383	0.000000	-2.162155	-3.678664	15.906730	8.424918	0.147043	30.959953	-9.081050	0.000000	-0.150217	0.386625	-1.621331	-0.278967	0.514211	-1.722664	-0.246791	0.940039	-1.722664	-0.171682	0.940039	-1.418664	-0.139491	0.788405	-1.317331	-0.085834	0.598882	-1.215998	-1.072982	4.373576	-9.017354	0.000000	0.000000	13.990552	-1.878000	-6.157451	11.228189	-7.587046	154.511444	4.173491	14.312425	-4.793789	-4.072407	5.557034	-13.124907	76.182571	20.225280	69.641880	-10.164042	1.762341
4.103448	9.653834	-3.799215	102.969895	0.299819	1.095935	0.322205	-6.296632	6.976727	-3.374528	3.025325	0.052802	29.184792	-3.899825	0.000000	-2.274801	-3.653731	16.479980	8.278426	0.144486	30.988128	-9.385755	0.000000	-0.150063	0.380051	-1.674047	-0.278682	0.505468	-1.778675	-0.246539	0.924057	-1.778675	-0.171507	0.924057	-1.464791	-0.139349	0.775001	-1.360163	-0.085746	0.588700	-1.255535	-1.071885	4.299217	-9.310547	0.000000	0.000000	13.682076	-1.739580	-6.136520	11.211355	-7.481771	155.416559	3.978274	14.863941	-4.810175	-3.896369	5.515536	-13.155805	76.744944	20.132142	69.118793	-10.362816	1.387643
4.120690	9.615732	-3.730644	103.236173	0.299468	1.096018	0.321706	-6.461888	7.001889	-3.304680	2.865291	0.050009	29.102968	-4.244597	0.000000	-2.349193	-3.667424	16.669227	8.179550	0.142760	31.170640	-9.123812	0.000000	-0.148558	0.374099	-1.740325	-0.275887	0.497551	-1.849095	-0.244066	0.909584	-1.849095	-0.169787	0.909584	-1.522784	-0.137951	0.762862	-1.414014	-0.084886	0.579479	-1.305244	-1.061136	4.231880	-9.679166	0.000000	0.000000	13.401399	-1.600310	-6.053357	11.226333	-7.367079	156.154106	3.835471	15.768967	-4.925664	-3.726940	5.429060	-13.205391	77.118400	20.068159	68.618250	-10.544040	1.047748
4.137931	9.582652	-3.675128	103.506371	0.299138	1.096085	0.321134	-6.622576	7.035396	-3.135623	2.676164	0.046708	29.001923	-4.707948	0.000000	-2.427630	-3.676333	17.039930	8.062520	0.140718	31.263709	-9.141464	0.000000	-0.145079	0.368588	-1.817523	-0.269425	0.490223	-1.931118	-0.238350	0.896186	-1.931118	-0.165810	0.896186	-1.590332	-0.134720	0.751625	-1.476737	-0.082898	0.570943	-1.363142	-1.036282	4.169545	-10.108515	0.000000	0.000000	13.152711	-1.460050	-5.900442	11.276120	-7.240483	157.224195	3.727384	16.458026	-5.082876	-3.544072	5.245654	-13.272531	76.996741	20.075170	68.368942	-10.663073	0.824661
4.155172	9.560407	-3.629738	103.761373	0.298849	1.096147	0.320548	-6.767098	7.077106	-2.931179	2.482734	0.043332	28.899148	-5.192852	0.000000	-2.499226	-3.693158	17.431093	7.957140	0.138878	31.297500	-9.256702	0.000000	-0.140918	0.364519	-1.897945	-0.261700	0.484810	-2.016567	-0.231515	0.886291	-2.016567	-0.161056	0.886291	-1.660702	-0.130857	0.743326	-1.542081	-0.080521	0.564639	-1.423459	-1.006567	4.123507	-10.555803	0.000000	0.000000	12.944431	-1.330516	-5.699119	11.351015	-7.118603	158.265693	3.669163	17.128727	-5.283212	-3.370587	5.016599	-13.346415	76.584180	20.125157	68.196382	-10.730654	0.686885
4.172414	9.551610	-3.597720	103.993822	0.298597	1.096192	0.319991	-6.883187	7.123592	-2.782616	2.303724	0.040208	28.827189	-5.564006	0.000000	-2.557117	-3.715983	17.837018	7.871167	0.137378	31.265458	-9.480962	0.000000	-0.136028	0.362266	-1.977614	-0.252617	0.481814	-2.101215	-0.223480	0.880814	-2.101215	-0.155466	0.880814	-1.730412	-0.126315	0.738733	-1.606811	-0.077726	0.561150	-1.483210	-0.971632	4.098026	-10.998895	0.000000	0.000000	12.792856	-1.225979	-5.473165	11.433885	-7.008962	159.279422	3.636759	17.685299	-5.496217	-3.217355	4.743412	-13.421992	75.821979	20.222083	68.202501	-10.744907	0.656798
4.189655	9.555683	-3.577513	104.178194	0.298408	1.096223	0.319504	-6.976077	7.174602	-2.486796	2.132315	0.037216	28.707315	-6.089811	0.000000	-2.594936	-3.744233	18.162290	7.825436	0.136580	31.203922	-9.716226	0.000000	-0.131002	0.361895	-2.045494	-0.243284	0.481320	-2.173337	-0.215223	0.879910	-2.173337	-0.149722	0.879910	-1.789807	-0.121648	0.737975	-1.661964	-0.074855	0.560575	-1.534121	-0.935734	4.093824	-11.376424	0.000000	0.000000	12.696848	-1.158751	-5.259982	11.489529	-6.920445	160.056366	3.594585	18.157359	-5.682851	-3.096922	4.471472	-13.490189	74.893907	20.339434	68.323492	-10.709235	0.688492
